<mxfile host="65bd71144e">
    <diagram id="dYWOO-E4g-iHiZctHswe" name="Page-1">
        <mxGraphModel dx="2221" dy="949" grid="1" gridSize="10" guides="1" tooltips="1" connect="1" arrows="1" fold="1" page="1" pageScale="1" pageWidth="850" pageHeight="1100" math="0" shadow="0">
            <root>
                <mxCell id="0"/>
                <mxCell id="1" parent="0"/>
                <mxCell id="35" value="" style="rounded=0;whiteSpace=wrap;html=1;" parent="1" vertex="1">
                    <mxGeometry x="180" y="35" width="620" height="410" as="geometry"/>
                </mxCell>
                <mxCell id="57" value="" style="rounded=1;dotted=1;whiteSpace=wrap;html=1;" parent="1" vertex="1">
                    <mxGeometry x="631" y="107.56" width="150" height="235.13" as="geometry"/>
                </mxCell>
                <mxCell id="62" style="edgeStyle=none;html=1;exitX=1;exitY=0.5;exitDx=0;exitDy=0;entryX=0;entryY=0.5;entryDx=0;entryDy=0;" edge="1" parent="1" source="2" target="35">
                    <mxGeometry relative="1" as="geometry"/>
                </mxCell>
                <mxCell id="2" value="" style="rounded=0;whiteSpace=wrap;html=1;" parent="1" vertex="1">
                    <mxGeometry x="-260" y="150" width="290" height="180" as="geometry"/>
                </mxCell>
                <mxCell id="5" value="&lt;a href=&quot;https://docs.amplify.aws/react/&quot;&gt;Amplify Docs - AWS Amplify Gen 2 Documentation&lt;/a&gt;" style="text;whiteSpace=wrap;html=1;" parent="1" vertex="1">
                    <mxGeometry x="-220" y="410" width="160" height="20" as="geometry"/>
                </mxCell>
                <mxCell id="49" style="edgeStyle=none;html=1;exitX=0.9;exitY=0.5;exitDx=0;exitDy=0;exitPerimeter=0;entryX=0;entryY=0.5;entryDx=0;entryDy=0;" parent="1" source="8" target="2" edge="1">
                    <mxGeometry relative="1" as="geometry"/>
                </mxCell>
                <mxCell id="8" value="" style="shape=actor;whiteSpace=wrap;html=1;" parent="1" vertex="1">
                    <mxGeometry x="-420" y="210" width="45" height="60" as="geometry"/>
                </mxCell>
                <mxCell id="34" style="edgeStyle=none;html=1;entryX=0;entryY=0.5;entryDx=0;entryDy=0;entryPerimeter=0;" parent="1" source="24" target="21" edge="1">
                    <mxGeometry relative="1" as="geometry">
                        <mxPoint x="410" y="227.07" as="targetPoint"/>
                        <mxPoint x="330" y="227.07" as="sourcePoint"/>
                    </mxGeometry>
                </mxCell>
                <mxCell id="21" value="" style="sketch=0;points=[[0,0,0],[0.25,0,0],[0.5,0,0],[0.75,0,0],[1,0,0],[0,1,0],[0.25,1,0],[0.5,1,0],[0.75,1,0],[1,1,0],[0,0.25,0],[0,0.5,0],[0,0.75,0],[1,0.25,0],[1,0.5,0],[1,0.75,0]];outlineConnect=0;fontColor=#232F3E;gradientColor=#F78E04;gradientDirection=north;fillColor=#D05C17;strokeColor=#ffffff;dashed=0;verticalLabelPosition=bottom;verticalAlign=top;align=center;html=1;fontSize=12;fontStyle=0;aspect=fixed;shape=mxgraph.aws4.resourceIcon;resIcon=mxgraph.aws4.lambda;" parent="1" vertex="1">
                    <mxGeometry x="443.5" y="186.13" width="78" height="78" as="geometry"/>
                </mxCell>
                <mxCell id="22" value="" style="outlineConnect=0;dashed=0;verticalLabelPosition=bottom;verticalAlign=top;align=center;html=1;shape=mxgraph.aws3.dynamo_db;fillColor=#2E73B8;gradientColor=none;" parent="1" vertex="1">
                    <mxGeometry x="670" y="189" width="72" height="81" as="geometry"/>
                </mxCell>
                <mxCell id="23" value="" style="outlineConnect=0;dashed=0;verticalLabelPosition=bottom;verticalAlign=top;align=center;html=1;shape=mxgraph.aws3.emr;fillColor=#F58534;gradientColor=none;" parent="1" vertex="1">
                    <mxGeometry x="190" y="47.629999999999995" width="30" height="30" as="geometry"/>
                </mxCell>
                <mxCell id="24" value="" style="outlineConnect=0;dashed=0;verticalLabelPosition=bottom;verticalAlign=top;align=center;html=1;shape=mxgraph.aws3.api_gateway;fillColor=#D9A741;gradientColor=none;" parent="1" vertex="1">
                    <mxGeometry x="230" y="178.63" width="76.5" height="93" as="geometry"/>
                </mxCell>
                <mxCell id="25" value="" style="outlineConnect=0;dashed=0;verticalLabelPosition=bottom;verticalAlign=top;align=center;html=1;shape=mxgraph.aws3.android;fillColor=#8CC64F;gradientColor=none;" parent="1" vertex="1">
                    <mxGeometry x="392" y="303.63" width="73.5" height="84" as="geometry"/>
                </mxCell>
                <mxCell id="26" value="Frontend" style="text;html=1;align=center;verticalAlign=middle;resizable=0;points=[];autosize=1;strokeColor=none;fillColor=none;" parent="1" vertex="1">
                    <mxGeometry x="-260" y="150" width="70" height="30" as="geometry"/>
                </mxCell>
                <mxCell id="27" value="" style="sketch=0;points=[[0,0,0],[0.25,0,0],[0.5,0,0],[0.75,0,0],[1,0,0],[0,1,0],[0.25,1,0],[0.5,1,0],[0.75,1,0],[1,1,0],[0,0.25,0],[0,0.5,0],[0,0.75,0],[1,0.25,0],[1,0.5,0],[1,0.75,0]];outlineConnect=0;fontColor=#232F3E;gradientColor=#F54749;gradientDirection=north;fillColor=#C7131F;strokeColor=#ffffff;dashed=0;verticalLabelPosition=bottom;verticalAlign=top;align=center;html=1;fontSize=12;fontStyle=0;aspect=fixed;shape=mxgraph.aws4.resourceIcon;resIcon=mxgraph.aws4.amplify;" parent="1" vertex="1">
                    <mxGeometry x="-152.63" y="224.74" width="75.26" height="75.26" as="geometry"/>
                </mxCell>
                <mxCell id="29" value="" style="shape=image;verticalLabelPosition=bottom;labelBackgroundColor=default;verticalAlign=top;aspect=fixed;imageAspect=0;image=data:image/svg+xml,PHN2ZyB4bWxuczp4bGluaz0iaHR0cDovL3d3dy53My5vcmcvMTk5OS94bGluayIgeG1sbnM9Imh0dHA6Ly93d3cudzMub3JnLzIwMDAvc3ZnIiB2aWV3Qm94PSIwLjAwMDMyMjY5OTU0NjgxMzk2NDg0IC0wLjAwMDEyODc0NjAzMjcxNDg0Mzc1IDI1NS45OTk2Nzk1NjU0Mjk3IDI1Ni4zMjE5Mjk5MzE2NDA2IiBwcmVzZXJ2ZUFzcGVjdFJhdGlvPSJ4TWlkWU1pZCBtZWV0IiBoZWlnaHQ9IjMxLjkxNTU3MTA0MjA3MTk4NSIgd2lkdGg9IjMxLjg3OTk2MDA5NTg4MjQxNCIgY2xhc3M9Imljb25pZnkgaWNvbmlmeS0tbG9nb3MiIHJvbGU9ImltZyIgYXJpYS1oaWRkZW49InRydWUiPjxkZWZzPjxsaW5lYXJHcmFkaWVudCB5Mj0iNzguNDExJSIgeTE9IjcuNjUyJSIgeDI9IjU3LjYzNiUiIHgxPSItLjgyOCUiIGlkPSJJY29uaWZ5SWQxODEzMDg4ZmUxZmJjMDFmYjQ2NiI+PHN0b3Agc3RvcC1jb2xvcj0iIzQxRDFGRiIgb2Zmc2V0PSIwJSIvPjxzdG9wIHN0b3AtY29sb3I9IiNCRDM0RkUiIG9mZnNldD0iMTAwJSIvPjwvbGluZWFyR3JhZGllbnQ+PGxpbmVhckdyYWRpZW50IHkyPSI4OS4wMyUiIHkxPSIyLjI0MiUiIHgyPSI1MC4zMTYlIiB4MT0iNDMuMzc2JSIgaWQ9Ikljb25pZnlJZDE4MTMwODhmZTFmYmMwMWZiNDY3Ij48c3RvcCBzdG9wLWNvbG9yPSIjRkZFQTgzIiBvZmZzZXQ9IjAlIi8+PHN0b3Agc3RvcC1jb2xvcj0iI0ZGREQzNSIgb2Zmc2V0PSI4LjMzMyUiLz48c3RvcCBzdG9wLWNvbG9yPSIjRkZBODAwIiBvZmZzZXQ9IjEwMCUiLz48L2xpbmVhckdyYWRpZW50PjwvZGVmcz48cGF0aCBkPSJNMjU1LjE1MyAzNy45MzhMMTM0Ljg5NyAyNTIuOTc2Yy0yLjQ4MyA0LjQ0LTguODYyIDQuNDY2LTExLjM4Mi4wNDhMLjg3NSAzNy45NThjLTIuNzQ2LTQuODE0IDEuMzcxLTEwLjY0NiA2LjgyNy05LjY3bDEyMC4zODUgMjEuNTE3YTYuNTM3IDYuNTM3IDAgMCAwIDIuMzIyLS4wMDRsMTE3Ljg2Ny0yMS40ODNjNS40MzgtLjk5MSA5LjU3NCA0Ljc5NiA2Ljg3NyA5LjYyWiIgZmlsbD0idXJsKCNJY29uaWZ5SWQxODEzMDg4ZmUxZmJjMDFmYjQ2NikiLz48cGF0aCBkPSJNMTg1LjQzMi4wNjNMOTYuNDQgMTcuNTAxYTMuMjY4IDMuMjY4IDAgMCAwLTIuNjM0IDMuMDE0bC01LjQ3NCA5Mi40NTZhMy4yNjggMy4yNjggMCAwIDAgMy45OTcgMy4zNzhsMjQuNzc3LTUuNzE4YzIuMzE4LS41MzUgNC40MTMgMS41MDcgMy45MzYgMy44MzhsLTcuMzYxIDM2LjA0N2MtLjQ5NSAyLjQyNiAxLjc4MiA0LjUgNC4xNTEgMy43OGwxNS4zMDQtNC42NDljMi4zNzItLjcyIDQuNjUyIDEuMzYgNC4xNSAzLjc4OGwtMTEuNjk4IDU2LjYyMWMtLjczMiAzLjU0MiAzLjk3OSA1LjQ3MyA1Ljk0MyAyLjQzN2wxLjMxMy0yLjAyOGw3Mi41MTYtMTQ0LjcyYzEuMjE1LTIuNDIzLS44OC01LjE4Ni0zLjU0LTQuNjcybC0yNS41MDUgNC45MjJjLTIuMzk2LjQ2Mi00LjQzNS0xLjc3LTMuNzU5LTQuMTE0bDE2LjY0Ni01Ny43MDVjLjY3Ny0yLjM1LTEuMzctNC41ODMtMy43NjktNC4xMTNaIiBmaWxsPSJ1cmwoI0ljb25pZnlJZDE4MTMwODhmZTFmYmMwMWZiNDY3KSIvPjwvc3ZnPg==;" parent="1" vertex="1">
                    <mxGeometry x="-60" y="227.37" width="70" height="70" as="geometry"/>
                </mxCell>
                <mxCell id="33" value="" style="shape=image;verticalLabelPosition=bottom;labelBackgroundColor=default;verticalAlign=top;aspect=fixed;imageAspect=0;image=data:image/png,iVBORw0KGgoAAAANSUhEUgAAAOIAAADfCAMAAADcKv+WAAAA1VBMVEUWHS0WvssVHi0XHSwVHi4WvsoYHC0WHS8XvcwWvskWHisWHCwWvc0YHC8UHy0ZHC0QFCMXGCkieYUkvMcSESUUEiMhipcrtMEQEycouccNIS8rnqwWHTEVGCYnk54VHyoKKDkQO0scYm0WTVkPM0EVQU8LGi4PCyMIEyYJIDILECMkmKcrrbsIHC0JDh0VUmEif4wQDikfbHgIJzIPND0URlkUUlwaYHINLD8lrLUiT18IHzUcW2wVFiAos8UOFi0OABklkKMdcHofhI0iOUkNO0MXUWTrtrP8AAAMM0lEQVR4nO2cC1fbOhKAbckvyY9Yfjuu47xJHNOk6aUhvZRu293+/5+0IwO90IVgh3tNOKvvlJTD4RBNZkbz0MiSJBAIBAKBQCAQCAQCgUAgEAgEAoFAIBAIBAKBQCAQCAQCgUAgEAgEAoHg/wpd0THGlFIdXhB8KymKgl97VX8j+jtdlxDSMNZs08Sa42CJIkWRJPTaS/u7wBpjYXB2tlicL4fL8/miLMOQ5ViTzNde2t+CxoKz+WzsRausiuPYh68qG0TeeHb+3mW9117eS8C6ojgFOzufeFmcyob8G4Z1nXmT+XtGsVYb7dvDwZoWLtZRTFRCiPW7hLWUsnEdrRehCU762ss9Bp2FQy+WDdUArP9VomHUX4TEm+kH6rz2co/ATKabaxCFqCCJrD6mw1psIsuWP5glDL+l3RVJNmbLbfyYbT4OSaNpALGyR1977Q3RNJRMKqPWUCMsbq7bfk4d+7XX3ghkamix9S0V1t1URPhli2QXAX0bWkRm/nFgGAT+PeaBj9pp/Vmo/vZrcfpJHYI8Lfgjayrbb5Kq0RB2ndMOkRSsNJxVjwbBBoCxjoLi1ENkL//jaAm5IuOL4LRDpO6Y0+wlEspW/Cnkyd9rS/IkOj5fHeeHd1iWf1XqxQmnAYGnvkxEAjLuAny6wSMYpy8w01pESOus3Vmrd+2s6NR1xC73N9Ge59dynZmqauMEoMaChJ0Y4zNsNvFHJOlIsYf/uGx3YPz1BzFuSwoQ7eY/qAvbatKS011iNvFH9M7ByefPZkcJAy7yiQ9CcRm5AsHg4NWCl1ZqlOsSxN+FjdatF2yULbuyVEzPM9m4NUuQzYjjal9dp+kjxeJhoIBWQY9N3rPHPlZRgLranYIrcpttErmKdrPhvCzLxXB05WUpSExa7LXwSaXjhLfsDogHcinsz8y4yrtqV+J+Bg4Idmqlg09L90sOO4YJsOAsmW4h5Wm37Rjp2O0ph5I5WynYMlOvP9pdRdFwrMoquJ4fzRJXk/Bdk9TWaEHdP7dVq30H9mTf+5ofUg+i4WUmW1GpO93IaM4hc4MNP1snTKKaAsWtw7NNTJGk6Tp2Lz2/hR4J3642ffb0G2IaTDPVktdgpx3ke9hG+cy3iJx6/RAipC4pv96VyyjBD8xkXbUxVe6Rq1GIKVX0B82Auslj27T8uVcNsv/ajSOCiG5ELKNau09t4DaiyTSTjRa7K1h9PC4Z6OjBtqNJyHFwMPzh8+jkBV0ICCJKdBkbRjZKntwDdUQp60ctlAjx1CJ+ND1jWLlviWD+ZjjfVUS1VJIOOwqKmvNlTaxsmmP9qZodg0NSe75pIyNEV9m43owCl90TxGFu/yqru1+WHJVdbaf6l4GcXR7YHGqw4iw2VhtbrYkHu2kZhCFjeRgEwWLm7eGnBs8N05HZkYh6MU/3l+xQpOaAF6HSaykgd18rraLv4/Vkvd55g70v1+GHp4pR0FlbMl/H07x4rszjgVwJPKtlSWkRQuqipW7qWXdblgGeOmXvOtIiXmwukoI6z2gR1V+l107Em14l4ac/YJuwCRl1KghfxEsc2pGISP+8aBiesGT+61aPbX3yd9Rs3t0RLNLmWsNPE7Z/84y3P17YAQHSSf7PivUA/JyNPuTMe7EKwQi2boctngcZ2/NgKfxuvFjIwflJn6LjYAvpV51sH6dByPeHpn7CvUjwx+AqNay24eMvrGrEiidTqdOg+PKzIsaxMpL9LKH4tLUIJWUyyohxpIjVJFEk5WBT4BTAbBi1dUVi8NxUrmaJdPonkQDO59sYsvI2TR2efJPBJXs2WTwRlF4wGpB2mlQtf7sosNZZT+plYElhi11V98wPl1jGrXiQg69mrmlj7LwNLUp8MiDhA0h1N+qAkIas8mzcItXV/Lmq9NTQJUrdobd/ZvSB8PMcS92Pl8FJpzSPgSmyEQ2Xu+ygT1pQRKWDT4swp13VwAhJGqJS7RAIKaAKiiUK60WItxjrX2gGxG9Hl0z2frpdxTenWffmydS7b9PVbhiEWLI7m9LFAMI9/Z2tmTQPWI0JcmLEX474i1rPLf9ce4MqNcjtQY8BGR6QVgPv8zz40nEghLBEe4wlbr8/HM0m65/r9WQ2mg6XiyDQTK7Cli6D+Okdzt2gHM4+jb9vNlEU/fix8cbr0TIp3dzsPh1loftxNvYGWeXf7HiWrPppvF9tdrNlmCPziHpcU5BmS+aXPATcMAzOgiDMsSPZCrhFZwaKePcdJ4vRdnDXvie/WhQqH8skfvVtNzp3QZe2pDTNs7gEGNfD/1gzwUPNugoFNJ23+LvLuE0dNpbycrzynyyECCEG8Ve7acL4Kk+73nkERPNyBFGMHGgu8WYgqDaOZknyRjLJ+5juNIrrsQrrUPLMT4SJmg4ugrd1SwFchS2/8wk3Q23QPuO/wYeFuUO+FXr22Swjrc6zDXm/nbO3Y6zmgo97tzl0UfkYzmoUvgkZMZewrtFbDSXwGRUjvirfgkdSh81XR463Ed97TxWqn/gdMJ2dZ9ajty2eVaSlEjJYMNThON5R4MVKroe+2sOPTNVsaCLppPtlZvmNh4qjWoI3x4LVND9hO0W6k3jy4xe7mnM9cyHPRI2NFXWWd9fvFqx9or5QRDmelFqv8ZbT0UDULQqbVn+V38dC1OuJ28obuxQyGfBR37ZTpb9hEaOVjOiPfkc7sI6KZPwro4FQrtbtBiLX1xLb7LAqt1XXbuCPlM9gj7x5JwLyawl0ub/JqXmmwgMAH54A1zxCs2o8CRr4o4ILOszGXfVLFRpseQ9aro8tib/PvkWbTcQbGqTxta87CNfj800dvTDnUTzqSkTdvKz4UUldGmXe5HKeBEEQlslwthvEN7lAY3M1uIyhztsUT/U7MOhYo1838mrRVaZAA6+2UHCk6MIJmXbrSKbGEne6zXibvpU243VgIt1+chrQtqXe+Q/L2iZd1Sd0WBHC54GjUcnYg5EFm5plfxtD9tKq/EivQlo8ecBrIwdKGvgkpl3dm8Lh2CCWpe4nYc6N6/7bUkdXcDCNiNxuIjrdftCKJ9v2RfLnilhk8N7pREQk4fOMp6abZajrGn74gAFd56ow3XGbgWjwR8uI5rmt20pxb29VFF3is1747KKyDOJ/6mhqCJlsYlhQ0x5yfZTMqja3ajnVxRmWFA12lrs/zJuRDmYuH1iFHbyaY60bQ8XlxpL9SXDocg8qwiW/g9JCQn4NYFgWkIeiu/uYtEB2Hi7GFT9mswhsNt00tbDZr+T96JmZzx7UywNw2BYiqqrlb6ZnLuvdDpaZuBcky3FVX0IiRjU0u+l/Y5x/UuNZiJB9yGh0RHG54ktvrEk+cqn62ffZEsKs65ZJMr+sn8ZhqHVyuC3BTrs4iXK0cJOum6TOurmAbbCVsXJBLTnOBtHGg2zpblS4VnI17+4Eo59dBU9G6XtgB4Ottgoev+Spp2ll+X6xNg676i5r+sX3stkUVqHU/thWPqO+LaZyu703zJAtOmu86ujf/Wa3H/X6pvSgXnUbEfnBwcNgoxLD/093Mxm9v/b0Buhm/5t6O7f9EtTtew11lYL3WpXdWMn730jrSxi/YZDBV63NJ9sphWL2o6O2nHuQakgldKIy8tCpzTfGcU3zWjz4eNKL4HSfzMBB+Yfvx3eyIEFKf7JTfwwVQl93/rHGasjGOKAn/rw0h2LNXcfH9iPTsUuld6c/S0uTSyg8VKu5ufLjIKjGSPyzy4sXLwAVvXLLB1PU5m0r/kKyy6A4cT+8Bap5Go4yPn7TWI2gcN9b5LR499qrbwTVEDXNcnzd+DgSfs1ajQIKSWDx2qtvjC7hsM+HhS1Lffr5E5CP8uejwUdRjcu3NivMMYPh98qHCvfgsZ1hWX62m4enfUj+BBo1P8yhlOfPnTwgYrVZLxL67rRTmifg50taXg7Xmyq+e77PA+mIGmebq2HIkC69SQnvMPNgPhp737LqOvVvTuwMI42r/cC7ms0DdvqBvgHYpHnozofT0WS9vhpfrX9OZtPhPAlz3Pxg/KTRdRsCiYMppjljCWMsZEwz4YcFfSOPmXwODE5JETgmHxjGfAhXUXTeBce3Y8Nv44KXQCAQCAQCgUAgEAgEAoFAIBAIBAKBQCAQCAQCgUAgEAgEAoFAIBAIBAKBQCAQCAQCwQ3/BR6E4PULgAWnAAAAAElFTkSuQmCC;" parent="1" vertex="1">
                    <mxGeometry x="-250" y="224.74" width="76.27" height="75.26" as="geometry"/>
                </mxCell>
                <mxCell id="38" value="AWS Cloud" style="text;html=1;strokeColor=none;fillColor=none;align=center;verticalAlign=middle;whiteSpace=wrap;rounded=0;" parent="1" vertex="1">
                    <mxGeometry x="211" y="47.629999999999995" width="95.5" height="30" as="geometry"/>
                </mxCell>
                <mxCell id="39" value="Vite" style="text;html=1;strokeColor=none;fillColor=none;align=center;verticalAlign=middle;whiteSpace=wrap;rounded=0;" parent="1" vertex="1">
                    <mxGeometry x="-55" y="300" width="60" height="30" as="geometry"/>
                </mxCell>
                <mxCell id="40" value="Amplify" style="text;html=1;strokeColor=none;fillColor=none;align=center;verticalAlign=middle;whiteSpace=wrap;rounded=0;" parent="1" vertex="1">
                    <mxGeometry x="-145" y="300" width="60" height="30" as="geometry"/>
                </mxCell>
                <mxCell id="41" value="TailwindCSS" style="text;html=1;strokeColor=none;fillColor=none;align=center;verticalAlign=middle;whiteSpace=wrap;rounded=0;" parent="1" vertex="1">
                    <mxGeometry x="-241.86" y="300" width="60" height="30" as="geometry"/>
                </mxCell>
                <mxCell id="42" value="User" style="text;html=1;strokeColor=none;fillColor=none;align=center;verticalAlign=middle;whiteSpace=wrap;rounded=0;" parent="1" vertex="1">
                    <mxGeometry x="-427.5" y="286.5" width="60" height="30" as="geometry"/>
                </mxCell>
                <mxCell id="43" value="API Gateway" style="text;html=1;strokeColor=none;fillColor=none;align=center;verticalAlign=middle;whiteSpace=wrap;rounded=0;" parent="1" vertex="1">
                    <mxGeometry x="238.25" y="277.63" width="60" height="30" as="geometry"/>
                </mxCell>
                <mxCell id="44" value="" style="shape=image;verticalLabelPosition=bottom;labelBackgroundColor=default;verticalAlign=top;aspect=fixed;imageAspect=0;image=data:image/png,iVBORw0KGgoAAAANSUhEUgAAAgAAAAIACAQAAABecRxxAAAqoUlEQVR42u3dd5xU1fkG8GeHhS2AdEEpImBBEFDEBoK996Cxd4waDdFoMCpqDPmJ0WCvWEE0GhuiYkXFAgQFaaKC0psgbdmlLLvz+2NZdped2b3vO3fmPffe53s/n/xh2JnnnLn3zJx7TwGIiIiIiIiIiIiIiIiIiIiIiIiIiIiIiIiIiIiIiIiIiIiIiIiIiIiIiIiIiIiIiIiIiIiIiIiIiIiIiIiIiIiIiIiIiIiIiIiIiIiIiIiIiIiIiIiIiIiIiIiIiIiIiIiIiIiIiIiIiIiIiIiIiIiIiIiIiIiIiIiIiIiIiIiIiIiIiIiIiIiIiIiIiIiIiIiIiIiIiIiIiIiIiIiIiIiIiIiIiIiIiIiIiIiIiIiIiIiIiIiIiIiIiIiIiIiIiIiIiIiIiIiIiIiIiIiIiIiIiIiIiCiJLOsAGVUXzbYfzdF423/dCXUAAAUoRBHWoBCFWI/lWIBC68BE6RX2BqA1OqIDOqIjOqIDmgv/eg0WYyEWYTHmYAbmYKt1cYj8FcYGoA72Qk/0RE/sh/o+vu5mzMIMzMQ0TMOv1oUk8kOYGoBGOByH4wD0QIO0v9dsjMd4fI4l1oUmSkUYGoBcHIqjcBQO2NaXz6SfMR6fYixWWVcCUfTsij/iIxQhbnxsxacYiN2sq4MoKtpgIL5AifmlX/WYgsHY17pqiLwLXhdgZ5yPs3Cww8m/wzMYhTXWMXzXEK3RCi3QEPmojyJsRiFWYSnmYqN1NAKQjXboiMbIRw42YBNWYiGW1Pbkyt3LqLoYjsEVOBX1rIN4sAmv4xl8hrh1kBS1QWd0xj7YG12SPkQtxXx8g8/wMeZYx42kejgax6A3eqButf9vK+ZiKqZgIiah2DpoKtrgdsw3/4kvPebiFrSwrroUNMRsUXmn4ibsbB06Ujrjcfzm6bMpwHvoYB1X5zCMxlbzi1l7FOIR7G5dhWpdsEFY3iI8FuDyBklXvC26C/Z6oH7vAwBiOA1fm1/CqR/FeAk9rCtT6XxFeTdiiK9DsGhHjfAIikWfyc/bh74HRD1ciu/NL13/jlK8jyOsK1XlcVV55+Mw6+Ch1RfzhJ/GJvS0Di1RD9dikfklm47jk2B9EACAHExWlXUr/o6YdfgQulnx+PuP1qG9i+Fc/Gx+oabvKMWLaG9dyULtPd5oqn68gXzr8KFSDy8oPoVXrGN7dyymmF+i6T824T40sa5qkZPUg64miedgUjJ5GKv4BH7CTtbBvTkAH5tfmpk7VuMvCZ7bumuIuqRT0dQ6fCjUx6eK2t8YjNvPTfCEcwN7039Mw0HWFe9ZHXyiLudkNLKOH3h18Z6q7q+0Dl67LFyIFeYXo81RggfR0PoD8GhnLFaX8wNkW8cPtCyMUNX7KOvgteuED8wvQ9tjCc60/hA8Ohib1aUcbh0+0Aar6tz53n8O7sIm8wvQheMVtLL+MDy5IYUyXmEdPrBOVXWPC73MTLUcHNgNL2Z08mwRFmIJFmMV1m47NmE9SgAAm1EH2WiAuqiPBmiOFmiFFmiFjmiWoXSrcBnGZLA2dLLwmvr3ShEOxCzrAgRQR0xRfZNfjmetoycXw40Z+O7fhGn4D27HWeimvhPdBAfgHNyBt7AwzWlL8SByrD+YWjXCT+oSzkCedfzAqacchvWCdfCatMO4NF5IxZiCx3Epuvi+RFhzHIvB+BiFacs+BXtafzi16pbCGkxPWIcPnPtU9TzT5bkY52FNWi6erfgad6FvBr5l6qEPBuPLtDy4LMDF1h9QrS5JoXxnW4cPlFNQqqjjDdjHOngyuXgmDRfNUjyO0w2eNe+My/F2GtYkfNH5R4PD1WVbG9RZ6QbaKYdgX2QdPJm2+J/Pl8o8/Bu9jaecNMBF+MTnXwMzHL9MclMYsv2/QKzpZK+ucir809bBkznc1+E+q/EoelkXqZJ2uBVzfCzfKhxlXaQadUyhIzfMOnwg3Kuq2+mu3mi9XriAQfKjBB/gXORaFyiBGE7BR6peW6KjGNdZF6hGp6lLWopTrMM7T9f7X4+9rIMnkodRPl0U63C/4z+Oga54KoURc1WPBw02O/HuHnW5VqGtdXinaXv/51oHT6QJxvtyMfyCQYGZRNsWD2KjL6V+0+EZ9XXwkbpcEwI1FzKzsvGlqk4ftw6eyG6+LOz1A85z+rswkbZ41JdfAhMcXll4FyxTl2uIdXhn6Xr/U13sFnf1YWmvebgysHPJOuFVX5o/d38w91Pf2ynBMdbhnXSSqvdf4GLv/0isTfHUX4xLA3vxlzvch1WO5qGjdTGSGqQu1TK0tA7vHG3v/yzr4NX9PsXR/kW4y+UBjQIxXJVyU7gEXayLkUQWRqtL9RGXDa1C++z/Eevg1Z2f0mYepXgZ7ayL4KvWeCvFJmClsxuPNk5hGddbrcM7Rdf7n+zeJLJzU7r85+JI6wKkRX8sT6kJWOHsGO/91c88itHHOrwzdM/+17j3YLx/CoN+SvAkGlgXIG1a4O2QNgED1GVaxHWDAQBtsUpRe6XurSd1dgqX/wynhvemQxauTWmEwBJnd957Xl2mt4O3a53vtL3/+62D70j/7V+Kh1x8kpkG+2JWCk3AT47uwJuPaeoyXW8d3pyu9z/RtYlVJ2CL8hRYgZOsw2dQQ7yRQhPwraOLPe6BdcoSbQ79L7+a6Xr/v2E36+BV9USB8gT4MCCLYvonC7elMIX4E9da/m1+p54g9HOE9w7QPft3bkrV7sphoaUYGrhhvv44Sf2NGcdz1uGTGKYuUYB2sPOVtvd/r3XwqprhB1UxNuJC6+iGUhkqfbN1+ISyU5j69Qfr8CZ0q/451vvPw1eqYvyC7tbRje2G2crLpcS9B0AAgNbqhV+K0M06fMbpev8r3ZodEsPrqg98sqP3szOrqXLyZxwb0NU6fEJHqYeBzQ7J4G+vdL3/EpxoHbyqf6g+7A+dX/oyU/LV8+rnoLF1+IRuU5bH3Xsb6aCd9/9/1sGrOll1N/t5LghRSR4+VF4wY5ycTpOVwswHZ9e09Z2u9/+1W1eObnHIezj2awe5GKu8YP5mHT2hppivLI+TM9vTQNf7X4HW1sEry8d3wf8J44gc5T7JxTjYOnpCvdTTwb+LwIhQbe//WOvgVT2n+vanxPLVz1LcHERztbIBiONR6+hppu3932UdvKprgl8ExzRTrqD4knXwJPSrQfe3jp5Wut7/OLcGzHVRzGp72Dq081or+87nWAdPqD5mKhuANc7OekydbtW/FdjVOnhlOYre/4tO3rF2TWfV8mGrHJ1Nsad6uHNYtxDTzft3bgnVoeIivOPW4wuHnaAaSDPaOnYSZysbAOdGu/tC2/u/3Tp4Vb3Fp+hXDm9w4R7dSrtO7gsD4CFlA1Aawiniut7/h279dm6AucICzOegX6ERitNkuaPjAuthorIJWIk21uF9pXv2v8S1q+cpYQGK0NM6cuDkYqriVHH18VlbrFQ2AeMDvy9E5VrQ9P63urZP9HHCVqwEZ1hHDqS9FcurlOBA69hJHKde/iQsD4618/5vsQ5eVS7mCAsw2DpyYJ2vOF2+cau3WMmdygagxLVvQCVd73+sa5/n4KAXIFCGK06Zi61DJxFTDnUOxxZiut6/c0umt8MGUQGWO/p0Oijy8ZP4pFnu7DTrppinbAIcGwMnpuv9O7hpimxbi63oZx048Poo+s7u9poPVm+Y7uacR2+0vf8brYPv6GRhAdj794O877jB4d9df1I2AMXobR1dTdf7f9O1KfN5wi0gJwT8Z5srchTj6R+0Dl2DkcomYBGaWUdX0Y38n+PeDM9bRQXYiL2tA4dGb/EptMnhvZUbKtePjmO0a9+JHujm/Rehh3XwHTUVTlFxrv8SaM+IT6GnrSPXoIvwVnLFMdA6upC293+ZdfDq7hEVgD///dVMPJJui2vbRlVxjrIB2IKDrKOL6Hr/Djbeu6BQUIDN/PnvuyvEp5Hbay88rmwC5jq6L2Iiumf/U5FnHby6R0VFuNs6bgjFMEl4IhU5PXwmB5OVTcB/rKN7pOv9r0Un6+DVdRA9vV0Qsc0dMuUw8cnk9uKr7VUXSBxxDLCO7oGu91+K062DJyKbmsqpP+kiXWt/teNN8YnKCUIbA7ChnK737+SCuXuJFv8Yax03xPZGsfCEutI6ci3+qfwNMMvxpk3X+3d06vOTgiJsRRfruKEmvXU20/En53XwibIJeNY6eg10vf/l2MU6eCItUBSSjyUMWos32zjSOnItWmKJsgm4wDp6Erre/1YcYR08Mcks7o1ubVocSo8JT6yR1oFrpZ0gVODow2Zd73+QdezEcrBcUAgnb2GETFvh5VLk6DqBlf1F+RtguoNPzHUj/8e42lW7UlCItWhqHTcSpIuEuP/QLAuvK5uAR6yj70DX+/8FTayDJ5aF2YJiDLGOGxEdhM8CvrIO7EEjxcInZceZ1tEr0fX+N7q7ZK5k/v8GtLCOGxn/FZ5iQdhuu7voZnPFsQbtraNvp+v9O/yodoygGPdbh42QPsJTzO0RgeU0S6DG4c4WYrre/yjr2Mm1xBbPxdji8PzzMPqf6CRbHJC5mU8rm4B/WQeHdtW/GS7vl3WToCAOTmAMtQuFJ5pjG0smkYspqgagFCcaJ9f1/tdhT+sqr8ksQVHcH5sdLvVEj2fdu1ueTEesUTUBv6K1aW5N778U/a2ruyYHCYryuXXYCLpXdLItdPU5czUnq3rScXxu2M3R9f6HWVd1zZ4QFOUs67ARtJfwpNvPOrBnsrWnKo47jfLqev8THLl1mUSu4KfYEtS1jhtJX4lOuDus43qWjc9UDUAJjjZJ+6Ui6wrjLkutJGu2BefUCpfLRafcN9ZxBXbBMlUTsNRgG21N73+rSVMl8qqg3W1vHTaiGojW1i1FG+vAAoeLVz4oO97P8E6Uunn/zm+Yk4P1ngszzjpshHlvpuOI42rruCI3qxqAzM6q0/X+33V/u9wTBcW5xDpshPUXnnhBkiXch7L82IJDMpSwLiYo8s0Pwv5GT3kuzgZnd6KNgnwUCE69AjcXnEqqMeaqmoCFGbrENL3/zDVPKYgJbsGMsA4bca+ITr9e1nGF9sdGVROQiW01db3/a6yr1ItDBAU62TpsxMk6ATdYxxUboGoA4rguzbl08/4dnvhTmfeBGOuRax024hqK1gd60zquwnOqBmAT9k9jJt2z/x+C0l32PgcgKHu0hJlkVd1V7t9/riYf01VNwJw0Xm6a3n8BOltXpTdNBH2bs63DEm4UnYZdreMqdBLuS11+vJKmPLqR/66uYVzN0YKfWQH5SRNq+4hOw0DchKrmNOUEocvTkEX37P8h6yr0bpDnQr1nHZUAAPMEJ2JQO23DVA1Aoe/b1Oie/U90e+JPVa95LtafraMSANkqwfOswyplY7yqCZjl84o7mt7/b8EaLD/fc8H2sY5KAGSrA5UGYJeAxFphqaoJGO5jBk3vvwTHW1edRHPPBVtsHZW2aSs6Iftax1U7QrRJbcXh1+03Xe//TutqkznBc8G4C6A7vP9qS/8QmXS6TdUAFPiyLLru2f/HAVmOdbtbPRftXOuotN0LglMyyMu3xvCuqgn4Fjkpv7em978weHtlvOm5cEGaXR52VwhOysnWYVPSTPRrp+JI9TGcZuR/ICb+7Gixx8LNtw5KlfQQnJabAjYncEe9xBuklx1npPCeut5/ADtbrTwX7iXrqFRJtmhbraA/vblG1QDotxDT9f7TNQ4xrbzvBfgn66hUxUTBqXmOddiUjVI1AV8rF6/V9P4DM/Gnqjs9F9DZ/Uwj6lHByXmbddiU1cdMVRMwVPFemmf/G3wfgZghXjcDLeJC4I65THB6Pmcd1gedRWshlR/yQTm6ef+BmfizI68rAQX7TnIY9RScnuHYx0mycH3F8St2FbyHbuT/49ZVo+V9RJmfwyvJDw0EP1QXWof1ycOqJuAzwdAcTe9/KvKsK0brDM+FvNY6KlWzUPBDOBzrONVV3Z33vpGNpve/GrtbV4veEM/FPMw6KlXzoeA09WNorAvaYqWiASjBUZ5eW/7svxSnWVdJKt73XMzG1lGpmocEJ+qJ1mF9c5RqgtBytKrldXXP/odYV0dqvLamYelDhsvVghM1TF24vysu1Djeq2XhcE3v/5OgTfypqr3ngnIzMBcdLzhV77MO66OYqPNTcdxUw2tqRv4vQUvrqkjNWZ6L+pR1VEpAsjZguLZzaSpaFK38KMahSV5P0/svDup9sYplog/w/Dc/W4emBCQds8xvop1Oq3EOtoj/Khv/QdOE//1lxdZig/CFdTWkyvv68r+zjkoJeR+zNtU6qu8GqroBYxLcCdD0/kdnYCuyNMvCGs/F7W4dlhKaIuivhs9IVRPwxx1eRfPsfw4aWRc+dXsICryTdVhK6C3Pn+CW4H9jVdMQPygagE3Yr9JraEb+F6GbddH9cJ7nAhdYR6UknhSctk1TfzvndMUGRRMwZ/sXmu7Z/6XWxU5N+U1A79N7l1pHpiRWCf5twB9ZJTQTAxR/1Wn7U62h6C3+6+GhmFsJ4HPPLd5n1lEpiRsE31v9rMOmyeOK7/A4LoOu9z8tuBN/qophvedCB3VzqfC7SHDqnmkdNk1yMFnRABTieEXvfw06Whc3dWVdgL0ECxixC+AqSReggXXYNNmMs7BG/Ff5eE98VySOS8IwIqasAfA+CAhYYR2ZkmADAADzcRHi4r+SPxW5F6Oti+oHeQMgb18pMwoF/7a+ddg0egd3p/09Pset1sX0h7wBWGcdmZJgA1BuMD5K6+uvwHnYal1If8QA1BGN7WMD4Koiwb8NbxcAAEpxQRpHO5bggvDcCYsB6CL6PmAD4Co2ABV+xVmKCULe3IKPrYvnnxgkg4AAcCSgs4oEN7/C3gAAE3BLWl53LO61LpqfsiG7AwB0r3U5JbJSjHoe/2X4GwBgGHqntCNgIitwqeIZg8PkDcCL1pHJB/nWATIgjkuxLzr5/IohewweQ91wzGYikVjqLxEA63Cm6M5IbV7FWOsi+S2GbiFZJZ4kotEAADNwpW+vVYK/WxfHfzHsbx2BDAR6/VqRUXjGt1eabV0Y/8XQyzoCGYjKLwAAuBZTfHmdkdYFSQf+AoimKDUAm3A21qb8Kusx3rog6RBTrIBKwRelBgD42YeHdxPSNrDIVCxipwKVidqn/lbKm6GstC5CesRCuDwk1S46NwHLPYPSlP5+rXUB0oMNQDRF7VPPwagUf/U0ty5CerALEE3F1gEy7F7hjJfqOlsXIT34CyCaotUAnOHDfsiSZfMChL8AommzdYAMaounffiay0V/64KkAy//aIrOL4C6+K9P26BcYl2UdOAvgGiKzi+AoTjIp1fqiyOtC+M/NgDRFMpBLQmciOt9fLX7wne1hK5A5Ek0ugBtMcLXm9z74ULrIvmNvwCiKQpdgGy85PtA9wexm3Wx/MUGIJqi0AUYgj6+v2YjjAzbKMq1ov3Q/msdl8iT41Gi2ii09uNm66L5y/u2oHHE8bJ1XCIPWmJZmi7/OIpxmHXx/CPtAoRkPxQKtRhGpXHt6my8hBbWRfSLdCgwGwBy3504Kq2v3wYvh+dOQJHo589w67hEtTgcW9P287/iSM+2IwY2ior9hHVcohq1UvX+lyjuBPS1LqofpPcAojGAhIIqhhGK3v/n6I75wr/Jxqvh2CNri6jdu986LlENbld8+6/ArgAOxGbxX44Lw52AYlGRh1nHJUqqn6L3X4Ljtv31DYrGY7B1kVMnGy7xqHVcoiRaYLHiEr57+99n4Q1F83G0dbFTVSoq8LPWcYkSysLbist/EupWeo3G+EX8Csuxi3XRUyP70cSRgOSmmxWX/+pqU3t6YZP4VT4O9nya6aLCvmkdlyiBg4Q3s8uOMxK80nWK17nDuvipeFpU1Pet4xJV0wTzFZftQ0lebZT4lUpwjHUV6A0QFfUz67hEO8jCW4rLfzrykrxeQ/wgfrWyR4mB1E1U0EnWcYl28BfF5V+AvWt4xW7CAfJlX40BHRNQBwWCYs6wjktUha73f34tr3qV4jXvsq4Krc8EhVxqHZaoEs2Duzie8fDKI8WvWoJjratD51+CQm7hTkLkDM3QnThmob6H147QnYCzRIVsYh2XaJs/KS7/InT1+Oq6OwHZ1pUi10FUxD2t4xIBAHoqBu3EMUDwDtcoXn+IdbXIZeE3QQF7W8clAtAAPyouz1eF7yJ/wFiC462rRu4TQQFPtw5LBOAVxeU/F42E79JMMcHoV7Sxrhyph9P0E4ooPa5WXP5bcLDinfoqphhPqDLFKAD+KCjcbdZhKfK6CxeyKzu0uwT+U/FeQ62rSOZoQdG4LCjZaoDZikvyXfUD7Gx8LX63UpxmXU0SrQVFG2cdliLuRcXlvyilXQI7YJ34HVehrXVFeZclKOB867AUaVcoLv+tODLFdz1b8a4TUc+6sryb7LlYJcixDkuR1QWFikvxVh/eeYTiff9lXV3eSUY+72EdliKqPmYpLsNPfZmnpxl3UBqch+a3CYoVwIEOFArPKy5//8bn91QsHL4a7a0rzZv+gkJdYx2WIukcxeXv7wy9QYoEk4JxJ6CroEgPWIelCNobGxSX392pv3ElMXykyPBv66rzIkcw3ulT67AUObmYqvr29XtEXkssF6coTbj4qHPmei7QGq4JQBn2lOLyT0//+wThThplV8zu1hVYu3cEBdot9bcj8kzzFD59d+AfUqT5n/t3Au4TFCdQwxwp4DopxuHF8WDa8uSouiPOb6srGWF1u3VYioxcTFFcbt+mdbjaPorhSM7fCThQUJg3rMNSZDyquPwLsFeaU/1BkWoNOlhXZk1yBcsr/2IdliJCMj6l4jgvA8leV+Sa7PYw+mmCogRy9VMKmN1Ei9WVH09nJFtjX7cjc8JzgoKcYx2WahXztPy1u+oJpqhVHLOQn6F8/RRrBcXR37pak5MssvyYdVhKqh1uxrtYhGLEEUcR5uEj3I/zA7eP/QOKy8v7ot9++Ici4Vp0tK7YZHoLijHTOiwl1AmvoqSGb8eHcaJ1RI9OUwy4yfSKldn4SpExvU8oUpArmO1UiubWcamaSzw8nvrAOqQnu2G14tJ6OeM522OtIuej1tWbzARBIRx/qhlBf/X0uQVhC8tsfKm4rOSLfvtB95yits1JjQwTFMH5kU0R43Wh7FOtg3og2a2y/NiMA4zSPqtIu87NZXUkuwR+bx2WKunlufvWyjpqrU5S9f7/bJZXt0fRVORaV3R1ktWB4+hkHZe2qYvpHj+zBdZRa9UGKxWX09umM1Q1awXF8YR1VSfifVKwfqMF8tv1nj+z16yj1iIbXygupYUpLfrthxsVqeM417q6qxsuiM8dAtyQL1ik4kbrsLXQ7MJTjD7WsZGFDxTJ16d9zoLYeYL4W9DYOi4BGCj4zA60DlujY2sYw5D88GPR79S1wgpF9mnIsw5e1S6iGzAcEGwvS3ALaj2yrePWoCWWKS4hfxb99sPxqpuXT1nH3tH3gvCjrMMSjhR8Xu9Zh61BHYxTXD7LnXqqcb+iBHFcYB27KslW4eszNvGCkpHctRlkHbYGdyounRIcYx27Ct1aQQXobB28suNF4TMx85qSy8avgk/rIOu4Selm1v3TOnY1e6BAUY6ZLn2R5oqWOxprHTfijhF90/i9SLZfWmKp4rL50sk7GprNS+N41jp2ZW8Lgm91qg8WPU8KPqvR1mGTiKkeobm76dbLqibgYuvYFWTrnd1gHTfCYqL75ldZx01Csi9l+eHytpu6tYI2oIt18HJtRY8zplrHjbC+olOsnXXcJGUoVlwu6Vv02w+Hqe5ozHJnBadJouDdreNG1oOCT2mGddiEmmOx4lL5xtUlNbbTPNOI4wXr2OVkI5udG8oQETEsEnxK91jHTSAL7ykuk3UBmIamm9MQx6XWwcvIOgFF5lMxoulo0anV1zpuAprttp1dTGMHbVUrGm905fe0rBPg8gCT8Bop+IRWOfjI7BDBThQVx3Dr2J5JVteoOGajgXVwQNoJWOzsE+bw2kk0XsO9bloTzFNcHplb9NsPz6iagMyvbJhAG+G8LIdXOw+py0Sfj1tDZoEsjFZcGoXuPCrzpD5+UDUBV1gHByAcnDHeOm7kjBd8Oiud6wB4X8LEuQtDZD9sUpSzCN2sg8tWBojDzZtM4dVVdJvWtcWnvK9gWPl4xTq2iq6p+wk7WQfPxRpR5I+tA0eKZA5gHEdZx62iMX5RXBJz7S8JlSyMUTUBDjR3TwgjH2YdODKaim4ALnOsA/Ca4nLYhJ7WsdVaCpZsq3z8wTp4L2FgrhGYKTeJPhe3hgBdq7oYBlrHTslxqrWCNqKHdfCJwsj9rANHQrZoskkp9rQOXMn+qptio00X/fbDv1XNnvmdgAuFgb+wrudIkH0qn1vHraSB6rHYohCMNK0rHFpXfrxqGztHvNJpUPaeDa4YZos+EYfmmatmyhejt3VsX+yFDaom4Brb2NId0Oc4P08r6M4WfR5rHRo5J1tnovz4m3Vs38iGbpUfxrc/W4uf2Lq+9USwZWGa6NNwZyPqbihSnP4fImYd3EevqJoAm12Pt3taGHcdFwlLozNEn0WJMzvPNBB2XMqOZWhpHdxXjVXzH+L4r2XojuLVTZxa4DBUsjFL9Em4swrgC4rT3rVFv/1woGoGZBzXWob+j/iDc3sDquC6RvhJHGEdeJtLVSe9e4t+++F2VV1swgF2kbuLhzFMQz3reg6hhsIRZdMceXreRTRusfyYGNIp5jHVDkhxLEBTu9CShcLLjrus6zmE/k/4GVxoHRgAkI+ZitN9FdpaB0+btlitagLesGvQ9xXv2roF+1vXc8h0FN5FX+DIrzDNohilONU6dlr9TtUAmA6IHiEO+z1yres5VD4U1v8A68AAgN+rTvT7rWOn3VOqetmCQ6wC76YYwz3EupZD5AJh3c934vt/D6xTnObuL/qdulxMVzUBC+yGRUvWoC87iu3aq5BpKh6S7cLy0rnCQUtlRxAW/fZDd9W0qDjesroT0EK4QEgccSxEc+t6DgVpP/onJ1YAkK4nUXacYx07Ywaq6sdwM77rFGHfD9VQThuniWv9AuvI0Pb+3Vu9OH2y8I6qjrbgYJvAdfCdIu4d1vUccPL1ZKY40Oh2xFrFuTLToalLmdBCtS264S/r3oqVTUpwvHU9B1gW3hXWd6kDS7Pl4FvFab3RhbVwM+xw8QP2suNdqzsB8seBcfzq6L60QSBfU/Yl68gAHlad1JdbxzbxL1VdxXGTTdyWWKX6adfYup4DqY94MnahAyPozlSd0KOsYxuph8mq+tqCQ20Cn6uK+1kEnu36bRcsEdfzYOvQaKfaFDOoi377oSPWq66pRVZ3At5UxR3pyNSUoMhVrCI3F3nGqeup1r7bFPGB4xerriizOwGtVN2AOP5hXc+B8py4fkscWJV5mOrM+JN1bHMvKZuAm23iSrcNKz+usq7nwBisqN1HrEPjFNX692Zj2xzSSLVbUhzFVs98NCu8xFFqvcZpQGiWz5yHhsap26p+GS4MwaLffuilXCtoMVpYxK2P79kEpMnp4kXY4ijFscaps/Gl6hssHIt+++FW1RUVx8eoYxG3Gzaq4pYEcJPnTDpGNUnkMevYuEd1NoRn0e/UxfCpsgm4xSbwVcq4pbjauq6ddbxq8ewZ5kNoT1CNaBtn893lrNbK2+slVvs/j1I2ASXcPSCh08UDf+KIo8B88e/W+FWRO2yLfvvhdOUVtQQ7W8TVPKsuP4Y7MWXVJb9X3gayXvsvhk9UXwLhW/TbD48rryejX1O7KkarlR9vmv9wdcnVilt/ZQ2pNen2cWUH14tKLE+1iGocZqNAe6l6rWXHRJtHGM6pg4eUNfid+di/Y1S9//H8/ZfUvsrb61ut9oE4VzX8o+yYix7W9W2uEcYqa2+Z+TzLVuLVCuII96LffrhWfT4Y3VW5Sd0AxFEU0Wmg5ToJt/uqOArRyzi7rvdfilOsK91xWYqdOMoOozEB+lnNZccI1LeucyP9FSstll9G9qvn3aFKPsw6dgA0V99bu9MmcBaGp9QEzEYX6zrPuDzFSssVx1+t46Of6rblN04sWO4+Xe0aPl2po5wmXH6sx9WRmhSyH35IobaesI6PnVXfUevQ0Tp4YNytPDeWYxebwLl4P6UmII5x6GBd6xmRj6HKZ/5lxwjzZT9jys/699ZVHyB11aNsPrW6E5CjXOi44ijCIPOTO92OwI8p1dHrDjxCu0WV/Enr2AHTQbWzUhyGm/Pmifewq36MR2frmk+b1uqlH8qP0Q5sm90HxYrkM8zHLATPhcqzpMRudqgfTcAWPBzCWeKNcTcKU6yZ9x1YW7EZFimSF2If6+CBNFJ5pqzArlaRc/BKyk1AHKvxZwe+6/ySi7+oFsvc8dvf/jtUu5/NZdbBA2onzFWeLZ/bdRVjeMSHJiCOH3FaCJ4MNMBALPShNp5xoO8P3KjK/qJ17AA7SH3D+J+WsQelMEC48jEdFwV41nhL3OnDN38ccTzoRFN4oGrC8pwIL/rth78pzxnjXbkuUk5qqH7MxsUB7A4cgudVl0uiD3KgdWEAAE0wX5F+E/azDh5wuiHXccTxK9pYBj9YuflhomMergvM/kJt8LeUhvlUPYoceXqepRzqdZ118BDYFSuVZ88Xth3H1sqNjxIfhXgOh1h/FjVqjovxgXLDx8THfGe+Pweq8r/pRNcl+E5Vd6mH2gbPU2xxUfMxA9ehifXnUc0euBHjleO3kx+fWG3/VM0Bqu7MfAc/qaDS3lgvxYnW0S9Cgc8XxmaMxRVOLCdSB4diKGb7XL6yY5gT9/0BoBF+VuQvttrAMpRyMV15Hjmw/sLe6vA1HVsxDtca3eaog164EWPUgzVrOwpwvvWHVsmrqjIYbVwVWl3Uq299ZX8TPQ8P+/RgsPoxG0/g3AzNgcrFQbgJ76Ttwi87vnZq1tw1qjK8H/pZHZmn+yTiiONe6+gAcCTmpfWy+QFP4nIckIbxco1xBK7HCExXjYKXHVsw2Jmf/gDQQ/U4d5ETHbSwycJ7yrMqyTpMmb5D2xD3YUDa37UEczAd32EW5mEx1qheIx8dth/7YPeM1dCPuBCTM/ZutWuIb7GH+K+KcTi+to4eSq0wQ3ljeDX2x4Id/6PFI5qj8Bj2zOD7bcBCLMIiLMMGrMUGbMAGrKv0/+cgH1lohqZouu1/m6M9WhnUTAkew80oMnjn5EbhPMVfXY8HrIOH1okYo+xcTURfFFvHB4C6GOj7c4HgH1NwkPUHU80AVUm44Xd63aE+x/5tHb1Ch5QXDwnTsQbXOHjLbF/VXefZHPmfZjGMVp5npTjNOnxlR2Oq+aXnwjHGdsR2EvVVC5YvRXvr4BGQj6/VXzWZu5/lQQyXYrH5BWh5TMBh1h9CEs8rSrPOmYHLYdcCc5Rn3CTX1mXOxyD1VIdgH7NxprO95YtVl7/bMzXCpZ26CXjAOnp1DfBX1RbTwT0WYIBTT/ur6owN4hKt4eWfYbvie9W5V4ozraMnUh83prDXcJCOObjctZ9hVeRhhrhM8yK4tYu9ZvhUdQaucXUB/nq4KOQ3BmfifOdXOJLv8jTeZNwEAXXxmOo8nOzA8rJJHYm3fZ9Ya3+U4F0c52yfv8J54nINcbgzEwWnq7rPD1vHrllb3OnLUppuHGvxADpZV6kne2K9qGRTHRy+FD0741nFMjT9rWPXpg5Owps+ratndZTiM1yMBtZV6VGuqAO2AH/gd78zeuAd4XzbtcH4UmqCKzDO12W2MnUswF1OTeut3VDPZfvK8RuZ0bQ3HhU8Ui/BSPd7pOVa4yycjj7O30ArMx+v4zVMQtw6iFAW9kFfHIp90TnJ5b0BX+IjvIOfrKNSEnXQDyfgEPREbsL/vwS/YDpmYhImYG1wGoAyzXAyTsVxqG8dJKnpeA+v4xvrGCnLRie0xS7YGXmoD+A3rMZSzMaCwDVqUVUX7dAe7VB/29WyBkVYiKVYhM0V/yhoDUCZbHTH0Tga/ewXOtquEJ9iDMZikXUQIu+C2QCUa4x+6FPDj51MWIWv8Dm+xFRsta4OIqlgNwDl6qEnDkZPdMfeGborXYRpmIJvMQmz+ZOYgiscDUCFHHRFD3TGntgLu/vcQdiMH/EjfsRsTMcP/L6nMAhbA1BZNtqjE1qjDdqgNdqiKZoKugpF+A2rsAyLsRALsRALsBCl1kUi8leYG4BE6qMpmqIB8pCHXORXGg8dx1psRhEKsBm/4TfHVuYjIiIiIiIiIiIiIiIiIiIiIiIiIiIiIiIiIiIiIiIiIiIiIiIiIiIiIiIiIiIiIiIiIiIiIiIiIiIiIiIiIiIiIiIiIiIiIiIiIiIiIiIiIiIiIiIiIiIiIiIiIiIiIiIiIiIiIiIiIiIiIiIiIiIiIiIiIiIiIiIiIiIiIiIiIiIiIiIiIiIiIiIiIiIiIiIiIiIiIiIiIiIiIiIiIiIiIiIiIiIiIiIiIiIiIiIiIiIiIiIiIiIiIiIiIiIiIiIiIiIiIiIiIiIiIiIiIiIiIiIiIiKizPp/hQH/pCP+n3kAAAAASUVORK5CYII=;" parent="1" vertex="1">
                    <mxGeometry x="490" y="314.63" width="62" height="62" as="geometry"/>
                </mxCell>
                <mxCell id="45" style="edgeStyle=none;html=1;exitX=1;exitY=0.5;exitDx=0;exitDy=0;exitPerimeter=0;entryX=0;entryY=0.5;entryDx=0;entryDy=0;" parent="1" source="21" target="57" edge="1">
                    <mxGeometry relative="1" as="geometry">
                        <mxPoint x="640" y="225" as="targetPoint"/>
                        <mxPoint x="536" y="224.57000000000005" as="sourcePoint"/>
                    </mxGeometry>
                </mxCell>
                <mxCell id="51" value="Lambda" style="text;html=1;strokeColor=none;fillColor=none;align=center;verticalAlign=middle;whiteSpace=wrap;rounded=0;" parent="1" vertex="1">
                    <mxGeometry x="452.5" y="273.63" width="60" height="30" as="geometry"/>
                </mxCell>
                <mxCell id="52" value="NodeJS" style="text;html=1;strokeColor=none;fillColor=none;align=center;verticalAlign=middle;whiteSpace=wrap;rounded=0;" parent="1" vertex="1">
                    <mxGeometry x="398.75" y="390" width="60" height="30" as="geometry"/>
                </mxCell>
                <mxCell id="53" value="DynamoDB" style="text;html=1;strokeColor=none;fillColor=none;align=center;verticalAlign=middle;whiteSpace=wrap;rounded=0;" parent="1" vertex="1">
                    <mxGeometry x="676" y="273.63" width="60" height="30" as="geometry"/>
                </mxCell>
                <mxCell id="54" value="Express" style="text;html=1;strokeColor=none;fillColor=none;align=center;verticalAlign=middle;whiteSpace=wrap;rounded=0;" parent="1" vertex="1">
                    <mxGeometry x="492" y="390" width="60" height="30" as="geometry"/>
                </mxCell>
                <mxCell id="60" value="Database" style="text;html=1;strokeColor=none;fillColor=none;align=center;verticalAlign=middle;whiteSpace=wrap;rounded=0;" parent="1" vertex="1">
                    <mxGeometry x="676" y="110" width="60" height="30" as="geometry"/>
                </mxCell>
            </root>
        </mxGraphModel>
    </diagram>
</mxfile>